<?xml version="1.0" encoding="iso-8859-1"?>
<!-- Generator: Adobe Illustrator 18.1.1, SVG Export Plug-In . SVG Version: 6.00 Build 0)  -->
<svg version="1.1" id="Capa_1" xmlns="http://www.w3.org/2000/svg" xmlns:xlink="http://www.w3.org/1999/xlink" x="0px" y="0px"
	 viewBox="0 0 447.072 447.072" style="enable-background:new 0 0 447.072 447.072;" xml:space="preserve">
<g>
	<g>
		<path style="fill:#010002;" d="M365.786,40.927v4.056v78.652v4.056c23.857-1.357,23.931-23.614,23.931-43.382
			S389.643,42.285,365.786,40.927z"/>
		<path style="fill:#010002;" d="M231.225,247.499c-25.979,4.967-37.595,19.639-37.595,36.977c0,20.37,16.054,37.034,52.559,38.627
			c11.99,22.541,33.441,38.342,71.889,38.342c87.065,0,87.065-81.009,87.065-137.909H231.006
			C231.006,231.169,231.014,239.248,231.225,247.499z M345.903,323.859c14.672-21.671,20.045-46.406,19.988-72.312
			c-0.024-12.201,18.891-12.201,18.915,0c0.057,28.987-6.161,57.615-22.573,81.863C355.438,343.449,339.043,333.995,345.903,323.859
			z M216.025,284.882c-0.171-9.405,1.829-16.745,15.989-20.435c1.008,14.192,3.04,28.393,7.096,41.399
			C218.634,303.171,216.22,295.758,216.025,284.882z"/>
		<path style="fill:#010002;" d="M138.186,443.007H426.97c13.054,0,20.102-13.371,20.102-25.963l0,0v-18.411
			c0-13.9-8.08-28.775-20.094-28.783l0,0H160.515l0,0c-9.429,0-17.062-2.56-22.329-7.169V443.007z"/>
		<path style="fill:#010002;" d="M271.251,4.064H22.402l0,0C9.421,4.064,0,13.477,0,26.434v390.611
			c0,12.542,8.998,25.963,22.402,25.963h107.655v-99.624l0,0V239.793v-19.996l0,0v-0.008c0-16.94,12.526-28.767,30.458-28.767
			h110.736c13.201,0,21.378-13.737,21.378-26.467l0,0v-14.176v-8.129V28.45v-2.008l0,0c0-2.187-0.301-4.194-0.74-6.121
			C289.646,10.413,281.956,4.064,271.251,4.064z M112.426,104.29c-0.455,0-0.919-0.033-1.382-0.122l-6.389-1.097
			c-5.511,12.177-17.704,20.679-31.937,20.679c-19.387,0-35.107-15.713-35.107-35.099s15.713-35.099,35.107-35.099
			c18.858,0,34.116,14.9,34.945,33.547l6.137,1.049c4.422,0.756,7.397,4.958,6.633,9.389
			C119.75,101.493,116.312,104.29,112.426,104.29z"/>
		<polygon style="fill:#010002;" points="320.632,158.507 323.241,158.507 336.214,158.507 339.173,158.507 341.79,150.379 
			344.408,142.25 357.657,142.25 357.657,28.45 300.757,28.45 300.757,142.25 313.178,142.25 316.909,150.379 		"/>
	</g>
</g>
<g>
</g>
<g>
</g>
<g>
</g>
<g>
</g>
<g>
</g>
<g>
</g>
<g>
</g>
<g>
</g>
<g>
</g>
<g>
</g>
<g>
</g>
<g>
</g>
<g>
</g>
<g>
</g>
<g>
</g>
</svg>
