<?xml version="1.0" encoding="iso-8859-1"?>
<!-- Generator: Adobe Illustrator 18.0.0, SVG Export Plug-In . SVG Version: 6.00 Build 0)  -->
<!DOCTYPE svg PUBLIC "-//W3C//DTD SVG 1.1//EN" "http://www.w3.org/Graphics/SVG/1.1/DTD/svg11.dtd">
<svg version="1.1" id="Capa_1" xmlns="http://www.w3.org/2000/svg" xmlns:xlink="http://www.w3.org/1999/xlink" x="0px" y="0px"
	 viewBox="0 0 59 59" style="enable-background:new 0 0 59 59;" xml:space="preserve">
<g>
	<path d="M1.5,58c0,0.553,0.447,1,1,1h54c0.553,0,1-0.447,1-1V12h-56V58z M11.5,34h6h4h6h4h6h4h6h5v7.936
		C49.967,38.934,46.063,37,41.682,37c-1.61,0-3.213,0.29-4.775,0.839C35.398,37.306,33.772,37,32.068,37
		c-1.611,0-3.214,0.29-4.776,0.839C25.784,37.306,24.158,37,22.454,37c-1.61,0-3.213,0.29-4.776,0.838
		C16.17,37.305,14.544,37,12.841,37c-1.981,0-3.911,0.398-5.736,1.183C6.738,38.341,6.5,38.702,6.5,39.102V34H11.5z M17.336,39.832
		c0.142,0.054,0.278,0.117,0.416,0.176c0.186,0.079,0.371,0.16,0.551,0.248c0.117,0.056,0.231,0.116,0.344,0.176
		c0.227,0.12,0.451,0.245,0.669,0.378c0.059,0.036,0.12,0.071,0.179,0.108c0.814,0.519,1.549,1.135,2.2,1.822
		c0.204,0.216,0.398,0.439,0.582,0.667c0.036,0.045,0.073,0.09,0.109,0.135c0.175,0.223,0.339,0.452,0.495,0.685
		c0.039,0.058,0.077,0.117,0.115,0.176c0.145,0.226,0.28,0.456,0.406,0.69c0.04,0.074,0.078,0.149,0.116,0.224
		c0.115,0.225,0.222,0.452,0.32,0.683c0.04,0.095,0.076,0.192,0.113,0.288c0.084,0.217,0.165,0.436,0.234,0.658
		c0.039,0.125,0.071,0.253,0.105,0.379c0.054,0.198,0.108,0.396,0.15,0.598c0.001,0.004,0.001,0.007,0.002,0.011
		c0.036,0.175,0.06,0.353,0.087,0.53c0.019,0.127,0.042,0.253,0.057,0.382c0.005,0.047,0.013,0.094,0.017,0.142
		c0.033,0.334,0.055,0.671,0.055,1.013c0,0.277-0.016,0.555-0.041,0.834c-0.008,0.091-0.022,0.182-0.033,0.273
		c-0.022,0.19-0.049,0.38-0.083,0.57c-0.019,0.106-0.041,0.212-0.063,0.318c-0.038,0.179-0.081,0.358-0.129,0.538
		c-0.028,0.106-0.056,0.213-0.088,0.32c-0.015,0.049-0.034,0.098-0.049,0.147h-2.36c0.365-0.963,0.572-1.974,0.572-3
		c0-4.963-4.282-9-9.546-9c-1.536,0-3.006,0.343-4.341,0.991v-2.213C9.893,39.262,11.351,39,12.841,39
		C14.432,39,15.949,39.298,17.336,39.832z M20.551,39.217c-0.026-0.017-0.049-0.037-0.075-0.053C21.133,39.055,21.793,39,22.454,39
		c1.593,0,3.112,0.299,4.5,0.833c0.135,0.052,0.265,0.112,0.398,0.168c0.192,0.082,0.384,0.165,0.57,0.256
		c0.113,0.055,0.224,0.113,0.335,0.171c0.231,0.122,0.458,0.249,0.678,0.384c0.057,0.034,0.115,0.068,0.171,0.103
		c0.815,0.519,1.55,1.136,2.202,1.823c0.204,0.216,0.398,0.439,0.582,0.667c0.036,0.045,0.073,0.09,0.109,0.135
		c0.175,0.223,0.339,0.452,0.495,0.685c0.039,0.058,0.077,0.117,0.115,0.176c0.145,0.226,0.28,0.456,0.406,0.69
		c0.04,0.074,0.078,0.149,0.116,0.224c0.115,0.225,0.222,0.452,0.32,0.683c0.04,0.095,0.076,0.192,0.113,0.288
		c0.084,0.217,0.165,0.436,0.234,0.658c0.039,0.125,0.071,0.253,0.105,0.379c0.054,0.199,0.108,0.397,0.15,0.599
		c0.001,0.003,0.001,0.006,0.002,0.009c0.036,0.175,0.06,0.353,0.087,0.531c0.019,0.127,0.042,0.254,0.057,0.382
		c0.005,0.047,0.012,0.094,0.017,0.141c0.033,0.334,0.055,0.671,0.055,1.014c0,0.276-0.016,0.555-0.041,0.833
		c-0.008,0.09-0.022,0.18-0.032,0.271c-0.023,0.192-0.049,0.384-0.083,0.576c-0.018,0.102-0.039,0.205-0.061,0.307
		c-0.039,0.187-0.084,0.374-0.135,0.562c-0.026,0.097-0.051,0.194-0.08,0.291c-0.016,0.053-0.037,0.107-0.054,0.16h-2.359
		C31.792,52.038,32,51.026,32,50c0-4.823-4.048-8.761-9.177-8.977c-0.03-0.03-0.064-0.056-0.094-0.085
		c-0.131-0.126-0.268-0.247-0.405-0.368c-0.217-0.192-0.431-0.386-0.662-0.566C21.306,39.725,20.936,39.462,20.551,39.217z
		 M30.164,39.217c-0.026-0.017-0.049-0.037-0.075-0.053C30.746,39.055,31.407,39,32.068,39c1.591,0,3.108,0.298,4.495,0.832
		c0.143,0.055,0.28,0.118,0.42,0.178c0.183,0.078,0.366,0.157,0.544,0.244c0.12,0.058,0.237,0.119,0.354,0.18
		c0.221,0.117,0.44,0.239,0.652,0.369c0.065,0.039,0.131,0.077,0.195,0.118c0.812,0.518,1.545,1.133,2.195,1.818
		c0.204,0.216,0.398,0.439,0.582,0.667c0.036,0.045,0.073,0.09,0.109,0.135c0.175,0.223,0.339,0.452,0.495,0.685
		c0.039,0.058,0.077,0.117,0.115,0.176c0.145,0.226,0.28,0.456,0.406,0.69c0.04,0.074,0.078,0.149,0.116,0.224
		c0.115,0.225,0.222,0.452,0.32,0.683c0.04,0.095,0.076,0.192,0.113,0.288c0.084,0.217,0.165,0.436,0.234,0.658
		c0.039,0.125,0.071,0.253,0.105,0.379c0.054,0.198,0.107,0.396,0.149,0.596c0.001,0.005,0.002,0.01,0.003,0.015
		c0.036,0.174,0.06,0.351,0.087,0.528c0.019,0.127,0.042,0.253,0.057,0.38c0.005,0.048,0.013,0.095,0.017,0.143
		c0.033,0.334,0.055,0.671,0.055,1.013c0,0.276-0.016,0.554-0.041,0.833c-0.008,0.09-0.022,0.18-0.032,0.27
		c-0.023,0.191-0.049,0.383-0.083,0.574c-0.018,0.104-0.04,0.208-0.062,0.312c-0.039,0.185-0.083,0.369-0.133,0.554
		c-0.027,0.1-0.053,0.199-0.082,0.299c-0.016,0.053-0.036,0.105-0.053,0.158h-2.359c0.364-0.962,0.572-1.974,0.572-3
		c0-4.823-4.048-8.761-9.177-8.977c-0.03-0.03-0.064-0.056-0.094-0.085c-0.131-0.126-0.268-0.247-0.405-0.368
		c-0.217-0.192-0.431-0.386-0.662-0.566C30.919,39.725,30.549,39.462,30.164,39.217z M39.773,39.214
		c-0.025-0.016-0.046-0.035-0.071-0.05C40.359,39.055,41.021,39,41.682,39c4.83,0,8.987,2.714,10.818,6.588V53h-1.844
		c0.364-0.962,0.572-1.974,0.572-3c0-4.823-4.048-8.761-9.177-8.977c-0.029-0.028-0.061-0.054-0.09-0.082
		c-0.135-0.131-0.277-0.255-0.418-0.38c-0.213-0.188-0.423-0.379-0.649-0.555C40.534,39.726,40.161,39.46,39.773,39.214z M7.5,17h44
		c0.553,0,1,0.447,1,1v14h-4v-4c0-1.859-1.279-3.411-3-3.858V22h1c0.553,0,1-0.447,1-1s-0.447-1-1-1h-4c-0.553,0-1,0.447-1,1
		s0.447,1,1,1h1v2.142c-1.721,0.447-3,1.999-3,3.858v4h-2v-4c0-1.859-1.279-3.411-3-3.858V22h1c0.553,0,1-0.447,1-1s-0.447-1-1-1h-4
		c-0.553,0-1,0.447-1,1s0.447,1,1,1h1v2.142c-1.721,0.447-3,1.999-3,3.858v4h-2v-4c0-1.859-1.279-3.411-3-3.858V22h1
		c0.553,0,1-0.447,1-1s-0.447-1-1-1h-4c-0.553,0-1,0.447-1,1s0.447,1,1,1h1v2.142c-1.721,0.447-3,1.999-3,3.858v4h-2v-4
		c0-1.859-1.279-3.411-3-3.858V22h1c0.553,0,1-0.447,1-1s-0.447-1-1-1h-4c-0.553,0-1,0.447-1,1s0.447,1,1,1h1v2.142
		c-1.721,0.447-3,1.999-3,3.858v4h-4V18C6.5,17.447,6.947,17,7.5,17z"/>
	<path d="M56.5,0h-54c-0.553,0-1,0.447-1,1v9h56V1C57.5,0.447,57.053,0,56.5,0z M11.5,7c0,0.553-0.447,1-1,1h-4
		c-0.553,0-1-0.447-1-1V3c0-0.553,0.447-1,1-1h4c0.553,0,1,0.447,1,1V7z M18.5,7c0,0.553-0.447,1-1,1h-4c-0.553,0-1-0.447-1-1V3
		c0-0.553,0.447-1,1-1h4c0.553,0,1,0.447,1,1V7z M54.5,7c0,0.553-0.447,1-1,1h-24c-0.553,0-1-0.447-1-1V3c0-0.553,0.447-1,1-1h24
		c0.553,0,1,0.447,1,1V7z"/>
</g>
<g>
</g>
<g>
</g>
<g>
</g>
<g>
</g>
<g>
</g>
<g>
</g>
<g>
</g>
<g>
</g>
<g>
</g>
<g>
</g>
<g>
</g>
<g>
</g>
<g>
</g>
<g>
</g>
<g>
</g>
</svg>
