<?xml version="1.0" encoding="iso-8859-1"?>
<!-- Generator: Adobe Illustrator 19.0.0, SVG Export Plug-In . SVG Version: 6.00 Build 0)  -->
<svg version="1.1" id="Capa_1" xmlns="http://www.w3.org/2000/svg" xmlns:xlink="http://www.w3.org/1999/xlink" x="0px" y="0px"
	 viewBox="0 0 512.001 512.001" style="enable-background:new 0 0 512.001 512.001;" xml:space="preserve">
<g>
	<g>
		<g>
			<path d="M256,379.993c43.566,0,79.009-35.443,79.009-79.009c0-43.566-35.443-79.009-79.009-79.009
				c-43.565,0-79.009,35.443-79.009,79.009C176.991,344.55,212.434,379.993,256,379.993z"/>
			<path d="M75.566,0v101.862h360.869V0H75.566z M341.386,64.632h-30.754V33.878h30.754V64.632z M394.386,64.632h-30.754V33.878
				h30.754V64.632z"/>
			<path d="M75.566,512.001h360.869V131.862H75.566V512.001z M256,191.975c60.107,0,109.009,48.901,109.009,109.009
				c0,60.108-48.901,109.008-109.009,109.008c-60.107,0-109.009-48.901-109.009-109.009
				C146.991,240.875,195.893,191.975,256,191.975z"/>
		</g>
	</g>
</g>
<g>
</g>
<g>
</g>
<g>
</g>
<g>
</g>
<g>
</g>
<g>
</g>
<g>
</g>
<g>
</g>
<g>
</g>
<g>
</g>
<g>
</g>
<g>
</g>
<g>
</g>
<g>
</g>
<g>
</g>
</svg>
