<?xml version="1.0" encoding="iso-8859-1"?>
<!-- Generator: Adobe Illustrator 19.0.0, SVG Export Plug-In . SVG Version: 6.00 Build 0)  -->
<svg version="1.1" id="Capa_1" xmlns="http://www.w3.org/2000/svg" xmlns:xlink="http://www.w3.org/1999/xlink" x="0px" y="0px"
	 viewBox="0 0 512 512" style="enable-background:new 0 0 512 512;" xml:space="preserve">
<g>
	<g>
		<polygon points="84.54,158.92 84.54,370.1 163.22,370.1 163.22,323.62 163.22,289.41 163.22,158.92 		"/>
	</g>
</g>
<g>
	<g>
		<rect x="193.22" y="373.69" width="242.19" height="58.23"/>
	</g>
</g>
<g>
	<g>
		<path d="M435.41,128.92v-9.5c0-21.69-17.65-39.34-39.34-39.34H184.69h-3.73c1.34,1.94,2.59,3.96,3.73,6.04
			c5.44,9.9,8.53,21.25,8.53,33.3v224.27h242.19V158.92H512v-30H435.41z"/>
	</g>
</g>
<g>
	<g>
		<path d="M126.53,80.17c-0.87-0.06-1.76-0.09-2.65-0.09c-1.57,0-3.13,0.09-4.65,0.28c-19.51,2.3-34.69,18.94-34.69,39.06v9.5h78.68
			v-9.5C163.22,98.62,146.99,81.54,126.53,80.17z"/>
	</g>
</g>
<g>
	<g>
		<polygon points="84.48,128.92 0,128.92 0,158.92 84.48,158.92 84.54,158.92 84.54,128.92 		"/>
	</g>
</g>
<g>
</g>
<g>
</g>
<g>
</g>
<g>
</g>
<g>
</g>
<g>
</g>
<g>
</g>
<g>
</g>
<g>
</g>
<g>
</g>
<g>
</g>
<g>
</g>
<g>
</g>
<g>
</g>
<g>
</g>
</svg>
