<?xml version="1.0" encoding="iso-8859-1"?>
<!-- Generator: Adobe Illustrator 19.0.0, SVG Export Plug-In . SVG Version: 6.00 Build 0)  -->
<svg version="1.1" id="Capa_1" xmlns="http://www.w3.org/2000/svg" xmlns:xlink="http://www.w3.org/1999/xlink" x="0px" y="0px"
	 viewBox="0 0 489.6 489.6" style="enable-background:new 0 0 489.6 489.6;" xml:space="preserve">
<g>
	<g>
		<g>
			<path d="M122.8,0v157.4h0.8h243.2V0H122.8z M172.9,122.4c0,5.4-4.3,10.1-10.1,10.1c-5.4,0-10.1-4.3-10.1-10.1V57.9
				c0-5.4,4.3-10.1,10.1-10.1c5.4,0,10.1,4.3,10.1,10.1V122.4z"/>
			<path d="M122.8,462.8h22.5v26.8h46.2v-26.8H298v26.8h46.2v-26.8h22.6V177.6h-244V462.8z M152.7,219.2c0-5.4,4.3-10.1,10.1-10.1
				c5.4,0,10.1,4.3,10.1,10.1v64.5c0,5.4-4.3,10.1-10.1,10.1c-5.4,0-10.1-4.3-10.1-10.1V219.2z"/>
		</g>
	</g>
</g>
<g>
</g>
<g>
</g>
<g>
</g>
<g>
</g>
<g>
</g>
<g>
</g>
<g>
</g>
<g>
</g>
<g>
</g>
<g>
</g>
<g>
</g>
<g>
</g>
<g>
</g>
<g>
</g>
<g>
</g>
</svg>
